<!DOCTYPE svg PUBLIC "-//W3C//DTD SVG 1.1//EN" "http://www.w3.org/Graphics/SVG/1.1/DTD/svg11.dtd">
<!-- Uploaded to: SVG Repo, www.svgrepo.com, Transformed by: SVG Repo Mixer Tools -->
<svg fill="#000000" width="800px" height="800px" viewBox="0 0 24 24" id="money-alt-1" data-name="Flat Line" xmlns="http://www.w3.org/2000/svg" class="icon flat-line">
<g id="SVGRepo_bgCarrier" stroke-width="0"/>
<g id="SVGRepo_tracerCarrier" stroke-linecap="round" stroke-linejoin="round"/>
<g id="SVGRepo_iconCarrier">
<rect id="secondary" x="3" y="3" width="18" height="14" rx="1" style="fill: #2ca9bc; stroke-width: 2;"/>
<path id="primary" d="M14,7H11.5A1.5,1.5,0,0,0,10,8.5h0A1.5,1.5,0,0,0,11.5,10h1A1.5,1.5,0,0,1,14,11.5h0A1.5,1.5,0,0,1,12.5,13H10" style="fill: none; stroke: #000000; stroke-linecap: round; stroke-linejoin: round; stroke-width: 2;"/>
<path id="primary-2" data-name="primary" d="M12,6V7m0,6v1M6,21H18m3-5V4a1,1,0,0,0-1-1H4A1,1,0,0,0,3,4V16a1,1,0,0,0,1,1H20A1,1,0,0,0,21,16Z" style="fill: none; stroke: #000000; stroke-linecap: round; stroke-linejoin: round; stroke-width: 2;"/>
</g>
</svg>